<svg xmlns="http://www.w3.org/2000/svg" width="195" height="45.664" viewBox="0 0 195 45.664">
  <g id="logo-white" transform="translate(-250 -253.165)">
    <path id="Path_1716" data-name="Path 1716" d="M264.949,295.912l-.332-2.971-6.641.011-1.891,2.974-6.085.009,13.628-21.567,5.084-.007,2.322,21.542Zm-.827-13.687-3.216,5.7,3.417,0Z" transform="translate(0 -10.863)" fill="#fff"/>
    <path id="Path_1717" data-name="Path 1717" d="M315.726,287.94a9.84,9.84,0,0,1-1.215,2.779,11.69,11.69,0,0,1-1.981,2.361,12.987,12.987,0,0,1-2.548,1.823,13.538,13.538,0,0,1-2.893,1.184,11.412,11.412,0,0,1-1.33.308,8.088,8.088,0,0,1-1.308.112,6.757,6.757,0,0,1-1.234-.108,7.992,7.992,0,0,1-1.156-.3,7.476,7.476,0,0,1-2.276-1.175,5.975,5.975,0,0,1-1.592-1.817,6.049,6.049,0,0,1-.743-2.358,7.626,7.626,0,0,1,.243-2.776l3.584-13.667,6-.009-3.49,13.3a2.371,2.371,0,0,0-.044,1.126,2.049,2.049,0,0,0,.434.888,2.163,2.163,0,0,0,.805.582,2.7,2.7,0,0,0,1.071.206,3.633,3.633,0,0,0,1.207-.21,4.334,4.334,0,0,0,1.112-.585,4.265,4.265,0,0,0,.9-.889,3.253,3.253,0,0,0,.544-1.127l3.49-13.3,6-.01Z" transform="translate(-24.298 -10.818)" fill="#fff"/>
    <path id="Path_1718" data-name="Path 1718" d="M362.292,279.539l-5.918.009-4.254,16.221-5.864.009,4.255-16.221-5.918.009-.288-.388,1.3-4.944,18.478-.03-1.3,4.944Z" transform="translate(-48.331 -10.783)" fill="#fff"/>
    <path id="Path_1719" data-name="Path 1719" d="M444.342,295l.16-.611a13.6,13.6,0,0,1-5.615,1.285,9.643,9.643,0,0,1-4.254-.881,7.755,7.755,0,0,1-2.962-2.423,8.1,8.1,0,0,1-1.442-3.608,10.929,10.929,0,0,1,.307-4.457,14.189,14.189,0,0,1,2.033-4.417,16.862,16.862,0,0,1,3.376-3.655,16.219,16.219,0,0,1,4.26-2.478,12.824,12.824,0,0,1,4.7-.91,9.325,9.325,0,0,1,4.561,1.091,8.14,8.14,0,0,1,3.177,3.088l-5.548,3.147a4.315,4.315,0,0,0-1.558-1.317,4.628,4.628,0,0,0-2.089-.455,6.192,6.192,0,0,0-2.392.491,8.468,8.468,0,0,0-2.145,1.294,8.624,8.624,0,0,0-1.687,1.876,7.571,7.571,0,0,0-1.024,2.265,5.865,5.865,0,0,0-.167,2.277,4.2,4.2,0,0,0,.714,1.888,4.15,4.15,0,0,0,1.48,1.288,4.49,4.49,0,0,0,2.138.482,6.547,6.547,0,0,0,2.64-.587,8.085,8.085,0,0,0,2.416-1.641l-3.806.005,1.362-5.194,9.476-.014-3.191,12.166Z" transform="translate(-92.313 -10.084)" fill="#fff"/>
    <path id="Path_1720" data-name="Path 1720" d="M487.84,295.565l-2-6.662-3.64.007-1.72,6.665-5.946.011,5.654-21.554,10.807-.017a4.012,4.012,0,0,1,1.507.291,5.489,5.489,0,0,1,1.352.775,6.4,6.4,0,0,1,1.1,1.095,5.767,5.767,0,0,1,.757,1.248,4.881,4.881,0,0,1,.355,1.874,7.648,7.648,0,0,1-.243,2.039,7.988,7.988,0,0,1-1.537,3,9.988,9.988,0,0,1-2.7,2.337l2.725,8.88Zm.2-16.741-3.362.005-1.217,4.638,3.363-.005a2.911,2.911,0,0,0,.992-.181,3.486,3.486,0,0,0,.908-.5,3.644,3.644,0,0,0,.721-.734,2.693,2.693,0,0,0,.433-.911,2,2,0,0,0,.044-.911,1.733,1.733,0,0,0-.336-.731,1.708,1.708,0,0,0-.648-.5,2.132,2.132,0,0,0-.9-.177" transform="translate(-115.072 -10.686)" fill="#fff"/>
    <path id="Path_1721" data-name="Path 1721" d="M527.585,295.556a9.678,9.678,0,0,1-4.24-.879,7.983,7.983,0,0,1-3-2.424,8.252,8.252,0,0,1-1.508-3.622,10.429,10.429,0,0,1,.262-4.443,13.905,13.905,0,0,1,2.069-4.444,16.766,16.766,0,0,1,7.691-6.079,12.9,12.9,0,0,1,4.71-.91,9.582,9.582,0,0,1,4.223.9,8.1,8.1,0,0,1,3.013,2.44,8.272,8.272,0,0,1,1.508,3.621,10.45,10.45,0,0,1-.263,4.441,13.941,13.941,0,0,1-2.067,4.446,16.866,16.866,0,0,1-3.41,3.629,16.356,16.356,0,0,1-4.291,2.435,13.1,13.1,0,0,1-4.694.894m4.539-17.3a6.227,6.227,0,0,0-2.393.49,8.266,8.266,0,0,0-2.13,1.294,8.786,8.786,0,0,0-1.673,1.878,7.471,7.471,0,0,0-1.024,2.263,5.75,5.75,0,0,0-.16,2.251,4.39,4.39,0,0,0,.685,1.885,3.907,3.907,0,0,0,1.453,1.29,4.491,4.491,0,0,0,2.138.482,6.208,6.208,0,0,0,2.391-.488,8.185,8.185,0,0,0,2.131-1.3,8.7,8.7,0,0,0,1.676-1.889,7.535,7.535,0,0,0,1.022-2.251,5.731,5.731,0,0,0,.162-2.262,4.45,4.45,0,0,0-.688-1.874,3.932,3.932,0,0,0-1.455-1.287,4.485,4.485,0,0,0-2.136-.484" transform="translate(-137.71 -10.04)" fill="#fff"/>
    <path id="Path_1722" data-name="Path 1722" d="M586.461,287.516a9.843,9.843,0,0,1-1.215,2.779,11.644,11.644,0,0,1-1.981,2.36,12.934,12.934,0,0,1-2.548,1.824,13.537,13.537,0,0,1-2.893,1.184,11.393,11.393,0,0,1-1.33.307,8.089,8.089,0,0,1-1.308.113,6.75,6.75,0,0,1-1.234-.108,7.99,7.99,0,0,1-1.156-.3,7.478,7.478,0,0,1-2.276-1.175,5.975,5.975,0,0,1-1.592-1.817,6.042,6.042,0,0,1-.743-2.358,7.628,7.628,0,0,1,.243-2.776l3.584-13.667,6-.009-3.49,13.3a2.371,2.371,0,0,0-.044,1.126,2.05,2.05,0,0,0,.434.888,2.143,2.143,0,0,0,.805.581,2.694,2.694,0,0,0,1.071.207,3.635,3.635,0,0,0,1.207-.21,4.3,4.3,0,0,0,1.112-.586,4.223,4.223,0,0,0,.9-.888,3.268,3.268,0,0,0,.544-1.128l3.49-13.3,6-.009Z" transform="translate(-163.05 -10.601)" fill="#fff"/>
    <path id="Path_1723" data-name="Path 1723" d="M617.1,288.67l-3.918.006-1.756,6.694-5.779.009,5.653-21.554,9.7-.016a7.475,7.475,0,0,1,2.849.524,5.732,5.732,0,0,1,2.143,1.47,4.976,4.976,0,0,1,1.154,2.274,6.1,6.1,0,0,1-.113,2.915,8.86,8.86,0,0,1-1.44,3,11.785,11.785,0,0,1-2.388,2.434,11.632,11.632,0,0,1-2.958,1.642,8.9,8.9,0,0,1-3.144.6m2.22-10.052-3.362.005-1.217,4.638,3.362-.005a2.9,2.9,0,0,0,.992-.181,3.488,3.488,0,0,0,.908-.5,3.646,3.646,0,0,0,.721-.734,2.7,2.7,0,0,0,.433-.911,2,2,0,0,0,.044-.911,1.733,1.733,0,0,0-.336-.731,1.707,1.707,0,0,0-.648-.5,2.134,2.134,0,0,0-.9-.177" transform="translate(-182.269 -10.581)" fill="#fff"/>
    <path id="Path_1724" data-name="Path 1724" d="M403.3,290.04c-.3-.092-.315-.579-.276-1.092.013-.118.026-.25.039-.369a14.616,14.616,0,0,1,.987-4.144,11.129,11.129,0,0,1-2.434-9.565,16.781,16.781,0,0,1,3.171-6.788,57.892,57.892,0,0,0-14.393.7c-.013-.013-.026-.013-.053,0-.132.013-.263.039-.434.066-1.671.316-1.329-.671-.921-1.342.053-.092.118-.171.171-.25.039-.053.079-.118.118-.171.013-.026.039-.053.053-.079a.291.291,0,0,0,.053-.066,27.091,27.091,0,0,1,5.263-5.618,27.528,27.528,0,0,1,6.368-3.855,22.26,22.26,0,0,1,6.459-1.684,16.624,16.624,0,0,1,5.618.263,14.963,14.963,0,0,1,4.052,1.513,11.978,11.978,0,0,1,1.987,1.395h2.092a9.581,9.581,0,0,0-.737-.829,13.208,13.208,0,0,0-2.408-2.053,16.512,16.512,0,0,0-4.446-2.092,19.956,19.956,0,0,0-6.316-.8,25.515,25.515,0,0,0-7.407,1.316,31.129,31.129,0,0,0-7.512,3.763,32.223,32.223,0,0,0-6.684,6.131,19.46,19.46,0,0,0-1.408,1.881,19.069,19.069,0,0,0-1.289,2,19.854,19.854,0,0,0-1.145,2.171,19.237,19.237,0,0,0-.921,2.237,22.836,22.836,0,0,0-1.395,9.8,17.514,17.514,0,0,0,11.63,15.064c.737.224,1.434.46,2.184.658q1.184.237,2.329.434c.592.053,1.17.092,1.75.157l.211.013h.053l.026.014h.355l.5.013c.329,0,.658,0,.987-.013a26.981,26.981,0,0,0,6.92-1.132,31.8,31.8,0,0,0,5-1.948c.224-.118.448-.236.658-.342h.026a.775.775,0,0,1,.105-.053c.21-.118.684-.382,1.315-.737.184-.118.395-.25.619-.382.013,0,.013-.013.026-.013.092-.066.2-.132.289-.184a.514.514,0,0,0,.092-.066,1.317,1.317,0,0,0,.3-.184c.145-.092.3-.2.448-.276a.112.112,0,0,1,.066-.039v-.013a27.649,27.649,0,0,0,4.907-3.986H406.363a12.592,12.592,0,0,1-2.407.592,1.91,1.91,0,0,1-.658-.013m-8.078-.132v.026c0,.092-.013.184-.013.263-.092.723-.5.789-1.079.7-.211-.039-.447-.105-.71-.158a10.67,10.67,0,0,1-5.157-3.065,11.163,11.163,0,0,1-2.882-5.947,14.914,14.914,0,0,1-.21-2.316c.039-1.355.447-2.342,2.184-2.184.026,0,.052.013.065,0,2.131.3,4.631,1.171,5.947,3.421,1.592,2.7,2.039,5.407,1.855,9.262" transform="translate(-66.354 0)" fill="#fff"/>
  </g>
</svg>
